<svg width="673" height="445" viewBox="0 0 673 445" fill="none" xmlns="http://www.w3.org/2000/svg">
<rect width="673" height="445" fill="#E5E5E5"/>
<g id="Frame 1" clip-path="url(#clip0)">
<rect width="673" height="445" fill="white"/>
<path id="Vector 1" d="M947.208 145.58C941.248 285.589 767.988 247.215 682.102 210.527C675.309 223.092 657.999 257.456 643.111 294.4C624.501 340.579 306.583 477.319 376.272 201.062C445.962 -75.1943 475.815 87.6043 521.329 103.758C566.843 119.911 623.625 -52.1124 535.474 -69.903C447.323 -87.6937 507.329 -315.969 549.342 -340.007C591.354 -364.044 779.838 -273.746 856.196 -278.077C932.08 -282.382 939.671 -67.6403 947.07 141.666L947.208 145.58Z" fill="url(#paint0_linear)"/>
<g id="undraw_dev_productivity_umsq 1">
<path id="Vector" d="M516.356 318.073C516.356 318.073 514.521 318.702 511.536 319.594C504.937 321.574 492.727 324.858 482.38 325.514C473.471 326.085 465.943 324.712 464.566 318.895C463.976 316.394 464.813 314.337 466.637 312.647C472.082 307.595 486.306 305.785 497.586 305.164C500.772 304.99 503.718 304.909 506.171 304.878C510.336 304.824 513.067 304.909 513.067 304.909L513.132 305.164L516.356 318.073Z" fill="#A0616A"/>
<path id="Vector_2" d="M485.53 336.579C478.442 345.363 449.178 326.962 438.942 320.1C436.713 318.606 435.387 317.66 435.387 317.66L444.751 305.164L447.716 301.208C447.716 301.208 450.37 302.616 454.292 304.909C454.435 304.994 454.577 305.079 454.724 305.164C458.106 307.151 462.352 309.749 466.637 312.647C472.549 316.649 478.527 321.215 482.38 325.514C486.148 329.717 487.879 333.665 485.53 336.579Z" fill="#A0616A"/>
<g id="me">
<path id="Vector_3" d="M485.118 151.078C500.781 151.078 513.478 138.372 513.478 122.698C513.478 107.023 500.781 94.3169 485.118 94.3169C469.455 94.3169 456.758 107.023 456.758 122.698C456.758 138.372 469.455 151.078 485.118 151.078Z" fill="#A0616A"/>
<path id="Vector_4" d="M463.951 136.888C463.951 136.888 469.294 177.197 461.074 181.721C452.854 186.245 509.985 186.657 509.985 186.657C509.985 186.657 497.243 151.695 502.997 141.001L463.951 136.888Z" fill="#A0616A"/>
<path id="Vector_5" d="M551.702 186.861L546.951 208.512L536.904 254.32L536.604 256.828L533.137 285.87L530.83 305.164L529.284 318.123C519.881 322.959 513.067 326.298 513.067 326.298C513.067 326.298 512.481 323.357 511.536 319.594C504.937 321.574 492.727 324.858 482.38 325.514C486.148 329.717 487.879 333.665 485.53 336.579C478.442 345.363 449.178 326.962 438.943 320.1C438.704 321.742 438.614 323.404 438.673 325.063L430.84 319.034L431.615 305.164L432.922 281.694L434.565 252.262C434.047 251.002 433.613 249.709 433.266 248.391C430.867 239.854 427.955 222.807 425.722 208.512C423.925 197.007 422.575 187.285 422.29 185.217C422.251 184.946 422.232 184.808 422.232 184.808L465.592 165.634C468.673 172.785 483.062 174.935 483.062 174.935C494.983 174.113 504.328 167.822 504.328 167.822L551.702 186.861Z" fill="#D0CDE1"/>
<path id="Vector_6" d="M461.525 95.852L456.223 93.7276C456.223 93.7276 467.31 81.5122 482.736 82.5745L478.397 77.7945C478.397 77.7945 489.003 73.5457 498.644 84.6988C503.712 90.5618 509.576 97.4534 513.231 105.217H518.91L516.54 110.439L524.835 115.662L516.321 114.724C516.828 117.583 516.906 120.503 516.552 123.386C516.187 126.27 514.716 128.899 512.451 130.718C512.451 130.718 505.875 117.096 505.875 114.972V120.283C505.875 120.283 500.572 115.503 500.572 112.316L497.68 116.034L496.233 110.192L478.397 116.034L481.29 111.254L470.202 112.847L474.541 107.005C474.541 107.005 462.008 113.909 461.525 119.752C461.043 125.594 457.375 131.129 457.375 131.129C457.375 131.129 447.546 103.819 461.525 95.852Z" fill="#2F2E41"/>
<path id="Vector_7" d="M582.528 286.399C579.64 289.533 572.482 294.253 563.804 299.363C560.576 301.262 557.14 303.218 553.634 305.164C545.269 309.806 536.511 314.407 529.284 318.124C519.881 322.959 513.067 326.298 513.067 326.298C513.067 326.298 512.48 323.357 511.536 319.594C510.271 314.557 508.365 308.047 506.379 305.164C506.31 305.063 506.24 304.971 506.171 304.878C505.593 304.118 505.01 303.674 504.436 303.674L533.137 285.87L545.539 278.175L536.604 256.828L525.396 230.052L532.161 208.512L538.96 186.861H551.702C551.702 186.861 555.921 196.077 561.317 208.929C562.123 210.851 562.956 212.854 563.804 214.923C574.904 241.939 588.741 279.664 582.528 286.399Z" fill="#D0CDE1"/>
<path id="Vector_8" d="M454.292 304.909C453.245 304.905 452.2 304.99 451.168 305.164C442.302 306.688 439.687 314.72 438.942 320.1C438.704 321.743 438.614 323.404 438.673 325.063L430.84 319.034L427.986 316.838C421.117 314.442 414.997 310.185 409.69 305.164C405.086 300.731 400.957 295.83 397.368 290.54C393.794 285.327 390.607 279.857 387.835 274.176C387.061 272.591 386.645 270.855 386.616 269.091C386.588 267.327 386.947 265.578 387.669 263.968L397.368 242.336L411.545 210.72C411.649 209.967 411.764 209.231 411.888 208.512C414.7 192.38 422.232 185.217 422.232 185.217H427.986L431.835 208.512L436.617 237.454L433.266 248.392L425.521 273.651L432.922 281.694L454.292 304.909Z" fill="#D0CDE1"/>
<path id="Vector_9" d="M460.804 237.477L465.723 243.22C467.551 242.871 469.459 242.462 471.425 242.001L470.012 237.477L473.467 241.51C494.292 236.385 520.104 226.419 520.104 226.419C520.104 226.419 492.237 228.464 471.43 223.915C462.224 221.902 452.752 226.469 448.974 235.108C446.778 240.13 447.123 244.48 454.911 244.48C457.543 244.435 460.167 244.188 462.76 243.741L460.804 237.477Z" fill="white"/>
</g>
<path id="Vector_10" d="M572.945 331.871V334.213C572.946 334.856 572.827 335.494 572.594 336.093C572.49 336.36 572.365 336.618 572.22 336.865C571.76 337.637 571.108 338.276 570.327 338.72C569.546 339.164 568.663 339.397 567.765 339.397H395.548C394.65 339.397 393.767 339.164 392.986 338.72C392.205 338.276 391.553 337.637 391.093 336.865C390.948 336.618 390.823 336.36 390.719 336.093C390.486 335.494 390.367 334.856 390.368 334.213V331.871C390.368 331.19 390.502 330.516 390.762 329.887C391.023 329.258 391.404 328.687 391.885 328.205C392.366 327.724 392.937 327.342 393.566 327.082C394.194 326.821 394.868 326.687 395.548 326.688H405.475V325.595C405.475 325.567 405.48 325.539 405.491 325.513C405.502 325.486 405.518 325.462 405.538 325.442C405.558 325.422 405.582 325.406 405.608 325.396C405.634 325.385 405.662 325.379 405.691 325.379H410.87C410.899 325.379 410.927 325.385 410.953 325.396C410.979 325.406 411.003 325.422 411.023 325.442C411.043 325.462 411.059 325.486 411.07 325.513C411.081 325.539 411.086 325.567 411.086 325.595V326.688H414.322V325.595C414.322 325.567 414.327 325.539 414.338 325.513C414.349 325.486 414.365 325.462 414.385 325.442C414.405 325.422 414.429 325.406 414.455 325.396C414.481 325.385 414.509 325.379 414.538 325.379H419.717C419.746 325.379 419.774 325.385 419.8 325.396C419.826 325.406 419.85 325.422 419.87 325.442C419.89 325.462 419.906 325.486 419.917 325.513C419.928 325.539 419.933 325.567 419.933 325.595V326.688H423.173V325.595C423.173 325.567 423.178 325.539 423.189 325.513C423.2 325.486 423.216 325.462 423.236 325.442C423.256 325.422 423.28 325.406 423.306 325.396C423.332 325.385 423.36 325.379 423.389 325.379H428.568C428.597 325.379 428.625 325.385 428.651 325.396C428.677 325.406 428.701 325.422 428.721 325.442C428.741 325.462 428.757 325.486 428.768 325.513C428.779 325.539 428.784 325.567 428.784 325.595V326.688H432.02V325.595C432.02 325.567 432.025 325.539 432.036 325.513C432.047 325.486 432.063 325.462 432.083 325.442C432.103 325.422 432.127 325.406 432.153 325.396C432.179 325.385 432.207 325.379 432.236 325.379H437.415C437.444 325.379 437.472 325.385 437.498 325.396C437.524 325.406 437.548 325.422 437.568 325.442C437.588 325.462 437.604 325.486 437.615 325.513C437.626 325.539 437.631 325.567 437.631 325.595V326.688H440.867V325.595C440.867 325.567 440.872 325.539 440.883 325.513C440.894 325.486 440.91 325.462 440.93 325.442C440.95 325.422 440.974 325.406 441 325.396C441.026 325.385 441.055 325.379 441.083 325.379H446.262C446.291 325.379 446.319 325.385 446.345 325.396C446.371 325.406 446.395 325.422 446.415 325.442C446.435 325.462 446.451 325.486 446.462 325.513C446.473 325.539 446.478 325.567 446.478 325.595V326.688H449.718V325.595C449.718 325.567 449.723 325.539 449.734 325.513C449.745 325.486 449.761 325.462 449.781 325.442C449.801 325.422 449.825 325.406 449.851 325.396C449.877 325.385 449.905 325.379 449.934 325.379H455.113C455.142 325.379 455.17 325.385 455.196 325.396C455.222 325.406 455.246 325.422 455.266 325.442C455.286 325.462 455.302 325.486 455.313 325.513C455.324 325.539 455.329 325.567 455.329 325.595V326.688H458.565V325.595C458.565 325.567 458.57 325.539 458.581 325.513C458.592 325.486 458.608 325.462 458.628 325.442C458.648 325.422 458.672 325.406 458.698 325.396C458.724 325.385 458.753 325.379 458.781 325.379H499.353C499.381 325.379 499.409 325.385 499.435 325.396C499.461 325.406 499.485 325.422 499.505 325.442C499.525 325.462 499.541 325.486 499.552 325.513C499.563 325.539 499.569 325.567 499.569 325.595V326.688H502.808V325.595C502.808 325.567 502.814 325.539 502.824 325.513C502.835 325.486 502.851 325.462 502.871 325.442C502.891 325.422 502.915 325.406 502.941 325.396C502.968 325.385 502.996 325.379 503.024 325.379H508.204C508.261 325.38 508.315 325.403 508.356 325.443C508.396 325.484 508.419 325.538 508.419 325.595V326.688H511.655V325.595C511.655 325.567 511.661 325.539 511.672 325.513C511.682 325.486 511.698 325.462 511.718 325.442C511.738 325.422 511.762 325.406 511.788 325.396C511.815 325.385 511.843 325.379 511.871 325.379H517.051C517.079 325.379 517.107 325.385 517.133 325.396C517.16 325.406 517.183 325.422 517.203 325.442C517.223 325.462 517.239 325.486 517.25 325.513C517.261 325.539 517.267 325.567 517.267 325.595V326.688H520.502V325.595C520.502 325.567 520.508 325.539 520.519 325.513C520.529 325.486 520.545 325.462 520.565 325.442C520.586 325.422 520.609 325.406 520.636 325.396C520.662 325.385 520.69 325.379 520.718 325.379H525.898C525.926 325.379 525.954 325.385 525.98 325.396C526.007 325.406 526.03 325.422 526.051 325.442C526.071 325.462 526.086 325.486 526.097 325.513C526.108 325.539 526.114 325.567 526.114 325.595V326.688H529.353V325.595C529.353 325.567 529.359 325.539 529.37 325.513C529.38 325.486 529.396 325.462 529.416 325.442C529.436 325.422 529.46 325.406 529.486 325.396C529.513 325.385 529.541 325.379 529.569 325.379H534.749C534.805 325.38 534.859 325.403 534.899 325.444C534.939 325.484 534.961 325.539 534.961 325.595V326.688H538.2V325.595C538.2 325.567 538.206 325.539 538.217 325.513C538.227 325.486 538.243 325.462 538.263 325.442C538.284 325.422 538.307 325.406 538.334 325.396C538.36 325.385 538.388 325.379 538.416 325.379H543.596C543.624 325.379 543.652 325.385 543.678 325.396C543.705 325.406 543.728 325.422 543.749 325.442C543.769 325.462 543.784 325.486 543.795 325.513C543.806 325.539 543.812 325.567 543.812 325.595V326.688H547.047V325.595C547.047 325.567 547.053 325.539 547.064 325.513C547.075 325.486 547.09 325.462 547.111 325.442C547.131 325.422 547.154 325.406 547.181 325.396C547.207 325.385 547.235 325.379 547.263 325.379H552.443C552.471 325.379 552.499 325.385 552.525 325.396C552.552 325.406 552.576 325.422 552.596 325.442C552.616 325.462 552.632 325.486 552.642 325.513C552.653 325.539 552.659 325.567 552.659 325.595V326.688H567.765C568.445 326.687 569.119 326.821 569.747 327.082C570.376 327.342 570.947 327.724 571.428 328.205C571.909 328.687 572.29 329.258 572.551 329.887C572.811 330.516 572.945 331.19 572.945 331.871V331.871Z" fill="#3F3D56"/>
<path id="Vector_11" d="M623.023 336.093H340.333V336.865H623.023V336.093Z" fill="#3F3D56"/>
<path id="Vector_12" d="M559.078 233.213H494.887V231.889H465.781V233.213H401.325C400.174 233.213 399.069 233.67 398.255 234.485C397.441 235.3 396.983 236.405 396.983 237.558V325.518C396.983 326.671 397.441 327.776 398.255 328.591C399.069 329.406 400.174 329.864 401.325 329.864H559.078C560.229 329.864 561.334 329.406 562.148 328.591C562.962 327.776 563.42 326.671 563.42 325.518V237.558C563.42 236.987 563.308 236.422 563.089 235.895C562.871 235.368 562.551 234.889 562.148 234.485C561.745 234.082 561.266 233.762 560.739 233.543C560.213 233.325 559.648 233.213 559.078 233.213V233.213Z" fill="#3F3D56"/>
<path id="Vector_13" d="M480.328 273.57C485.653 273.57 489.969 269.251 489.969 263.922C489.969 258.593 485.653 254.273 480.328 254.273C475.003 254.273 470.686 258.593 470.686 263.922C470.686 269.251 475.003 273.57 480.328 273.57Z" stroke="#D0CDE1" stroke-width="2" stroke-miterlimit="10"/>
<path id="Vector_14" d="M477.243 277.044C482.567 277.044 486.884 272.724 486.884 267.395C486.884 262.067 482.567 257.747 477.243 257.747C471.918 257.747 467.601 262.067 467.601 267.395C467.601 272.724 471.918 277.044 477.243 277.044Z" fill="#D0CDE1"/>
<path id="Vector_15" d="M358.824 332.194H348.025V343H358.824V332.194Z" fill="#D0CDE1"/>
<path id="Vector_16" d="M352.269 323.703V336.825H365.381V323.703H352.269ZM364.81 336.254H352.836V324.274H364.81V336.254Z" fill="#3F3D56"/>
<path id="Vector_17" d="M608.732 332.194H597.934V343H608.732V332.194Z" fill="#D0CDE1"/>
<path id="Vector_18" d="M602.178 323.703V336.825H615.29V323.703H602.178ZM614.719 336.254H602.745V324.274H614.719V336.254Z" fill="#3F3D56"/>
<path id="Vector_19" d="M353.476 165.81C370.375 165.81 384.074 152.101 384.074 135.19C384.074 118.278 370.375 104.569 353.476 104.569C336.577 104.569 322.877 118.278 322.877 135.19C322.877 152.101 336.577 165.81 353.476 165.81Z" fill="#D0CDE1"/>
<path id="Vector_20" d="M364.139 98.8019C361.369 98.4493 358.565 98.4493 355.794 98.8019C349.622 99.6129 343.811 102.179 339.053 106.195C334.294 110.212 330.786 115.51 328.946 121.461C328.109 124.173 327.635 126.985 327.537 129.822C327.523 130.216 327.514 130.615 327.514 131.014C327.522 139.625 330.944 147.88 337.028 153.969C343.113 160.058 351.362 163.482 359.967 163.491C360.657 163.491 361.348 163.467 362.03 163.426C363.629 163.325 365.219 163.105 366.786 162.767C374.269 161.157 380.942 156.952 385.627 150.896C390.313 144.839 392.708 137.321 392.392 129.668C392.075 122.016 389.066 114.721 383.896 109.073C378.727 103.425 371.729 99.7874 364.139 98.8019H364.139ZM370.124 160.883H370.12C367.506 161.776 364.786 162.317 362.03 162.493C361.348 162.54 360.657 162.563 359.967 162.563C351.608 162.552 343.596 159.225 337.686 153.311C331.776 147.397 328.451 139.378 328.441 131.014C328.441 130.615 328.45 130.216 328.464 129.822C328.783 121.67 332.24 113.958 338.112 108.3C343.984 102.642 351.815 99.4761 359.967 99.4653C367.435 99.4657 374.662 102.12 380.358 106.954C386.054 111.789 389.85 118.49 391.069 125.864C392.289 133.238 390.853 140.806 387.017 147.219C383.181 153.632 377.195 158.475 370.124 160.883H370.124Z" fill="#3F3D56"/>
<path id="Vector_21" d="M360.43 101.321H359.503V107.816H360.43V101.321Z" fill="#3F3D56"/>
<path id="Vector_22" d="M339.314 109.69L338.658 110.346L343.247 114.939L343.903 114.283L339.314 109.69Z" fill="#3F3D56"/>
<path id="Vector_23" d="M330.295 130.55V131.478H336.786V130.55H330.295Z" fill="#3F3D56"/>
<path id="Vector_24" d="M338.658 151.682L339.314 152.338L343.903 147.745L343.247 147.089L338.658 151.682Z" fill="#3F3D56"/>
<path id="Vector_25" d="M376.03 114.283L376.686 114.939L381.275 110.346L380.62 109.69L376.03 114.283Z" fill="#3F3D56"/>
<path id="Vector_26" d="M383.147 130.55V131.478H389.638V130.55H383.147Z" fill="#3F3D56"/>
<path id="Vector_27" d="M376.686 147.089L376.03 147.745L380.62 152.338L381.275 151.682L376.686 147.089Z" fill="#3F3D56"/>
<path id="Vector_28" d="M360.43 154.212H359.503V160.707H360.43V154.212Z" fill="#3F3D56"/>
<path id="Vector_29" d="M361.357 129.158C360.956 128.857 360.468 128.694 359.967 128.694C359.465 128.694 358.977 128.857 358.576 129.158C358.301 129.367 358.075 129.633 357.913 129.938C357.707 130.33 357.619 130.773 357.657 131.214C357.695 131.656 357.859 132.077 358.128 132.428C358.398 132.779 358.763 133.046 359.179 133.196C359.595 133.347 360.046 133.375 360.478 133.277C360.909 133.179 361.304 132.96 361.615 132.645C361.926 132.33 362.141 131.932 362.233 131.499C362.326 131.066 362.293 130.615 362.137 130.2C361.982 129.786 361.711 129.424 361.357 129.158H361.357ZM359.967 132.406C359.598 132.405 359.245 132.258 358.984 131.997C358.724 131.736 358.577 131.383 358.576 131.014C358.577 130.733 358.663 130.458 358.821 130.225C358.957 130.028 359.142 129.87 359.357 129.765C359.571 129.66 359.81 129.613 360.048 129.627C360.287 129.642 360.518 129.718 360.719 129.847C360.92 129.977 361.084 130.157 361.195 130.369C361.306 130.58 361.361 130.817 361.354 131.056C361.347 131.296 361.278 131.529 361.155 131.734C361.031 131.939 360.857 132.108 360.649 132.226C360.441 132.344 360.206 132.406 359.967 132.406V132.406Z" fill="#3F3D56"/>
<path id="Vector_30" d="M364.139 90.6502H355.794V99.0014H364.139V90.6502Z" fill="#3F3D56"/>
<path id="Vector_31" d="M359.967 92.0421C366.112 92.0421 371.093 90.2765 371.093 88.0985C371.093 85.9205 366.112 84.1549 359.967 84.1549C353.821 84.1549 348.84 85.9205 348.84 88.0985C348.84 90.2765 353.821 92.0421 359.967 92.0421Z" fill="#3F3D56"/>
<path id="arrow" d="M361.357 113.384H358.576V129.158H361.357V113.384Z" fill="#3F3D56"/>
<path id="Vector_32" d="M404.16 162.077H317V163.005H404.16V162.077Z" fill="#3F3D56"/>
<g id="leaf-left">
<path id="Vector_33" d="M375.078 308.47C375.438 320.801 368.238 325.32 359.203 325.584C358.993 325.59 358.784 325.594 358.576 325.595C358.157 325.599 357.742 325.592 357.332 325.575C349.16 325.235 342.692 320.894 342.357 309.427C342.011 297.559 356.73 282.139 357.835 280.999L357.837 280.998C357.879 280.954 357.9 280.932 357.9 280.932C357.9 280.932 374.718 296.14 375.078 308.47Z" fill="#D0CDE1"/>
<path id="Vector_34" d="M358.553 323.715L364.292 315.174L358.564 324.634L358.576 325.595C358.157 325.599 357.742 325.592 357.332 325.575L357.616 313.22L357.608 313.124L357.619 313.106L357.646 311.939L351.361 302.806L357.639 311.065L357.661 311.312L357.876 301.977L352.447 292.509L357.891 300.337L357.835 280.999L357.835 280.934L357.837 280.998L358.197 296.239L363.145 290.048L358.213 297.552L358.321 305.902L362.874 297.753L358.338 307.129L358.398 311.772L365.019 300.421L358.418 313.391L358.553 323.715Z" fill="#3F3D56"/>
</g>
<g id="leaf-right">
<path id="Vector_35" d="M624.987 308.47C625.347 320.801 618.147 325.32 609.112 325.584C608.902 325.59 608.693 325.594 608.485 325.595C608.066 325.599 607.651 325.592 607.24 325.575C599.069 325.235 592.601 320.894 592.266 309.427C591.92 297.559 606.639 282.139 607.744 280.999L607.745 280.998C607.787 280.954 607.809 280.932 607.809 280.932C607.809 280.932 624.627 296.14 624.987 308.47Z" fill="#D0CDE1"/>
<path id="Vector_36" d="M608.461 323.715L614.201 315.174L608.473 324.634L608.485 325.595C608.066 325.599 607.651 325.592 607.24 325.575L607.525 313.22L607.517 313.124L607.528 313.106L607.555 311.939L601.27 302.806L607.548 311.065L607.57 311.312L607.785 301.977L602.356 292.509L607.8 300.337L607.743 280.999L607.744 280.934L607.745 280.998L608.106 296.239L613.054 290.048L608.122 297.552L608.23 305.902L612.783 297.753L608.247 307.129L608.307 311.772L614.928 300.421L608.327 313.391L608.461 323.715Z" fill="#3F3D56"/>
</g>
</g>
</g>
<defs>
<linearGradient id="paint0_linear" x1="308.843" y1="333.776" x2="910.096" y2="-205.65" gradientUnits="userSpaceOnUse">
<stop stop-color="#FF0BE6"/>
<stop offset="0.151042" stop-color="#F516E8"/>
<stop offset="0.744692" stop-color="#5B2EF8"/>
<stop offset="0.744792" stop-color="#CB1CEC"/>
<stop offset="0.807292" stop-color="#D41BEB"/>
<stop offset="0.9996" stop-color="#2137FE"/>
<stop offset="0.9997" stop-color="#FF14E7"/>
<stop offset="0.9998" stop-color="#FF64EF"/>
<stop offset="0.9999" stop-color="#CCB7CA"/>
</linearGradient>
<clipPath id="clip0">
<rect width="673" height="445" fill="white"/>
</clipPath>
</defs>
</svg>
